<svg xmlns="http://www.w3.org/2000/svg" viewBox="0 0 48 56" fill="none">
  <rect width="48" height="56" rx="10" fill="#060E18"/>
  <defs>
    <linearGradient id="f-frame" x1="0" y1="0" x2="1" y2="0">
      <stop offset="0%"   stop-color="#060E18"/>
      <stop offset="50%"  stop-color="#1E3A56"/>
      <stop offset="100%" stop-color="#060E18"/>
    </linearGradient>
    <radialGradient id="f-face" cx="50%" cy="22%" r="72%">
      <stop offset="0%"   stop-color="#1E3E60"/>
      <stop offset="100%" stop-color="#070E1A"/>
    </radialGradient>
    <linearGradient id="f-n" x1="0" y1="0" x2="0" y2="1">
      <stop offset="0%"   stop-color="#93C5FD"/>
      <stop offset="100%" stop-color="#1D4ED8"/>
    </linearGradient>
  </defs>
  <path d="M24,1.5 L45,9 L45,32 Q45,46 24,54.5 Q3,46 3,32 L3,9 Z" fill="url(#f-frame)"/>
  <path d="M24,5.5 L41,12.5 L41,31.5 Q41,43 24,50.5 Q7,43 7,31.5 L7,12.5 Z" fill="url(#f-face)"/>
  <path d="M14.5,17 L19,17 L19,33.5 L29,17 L33.5,17 L33.5,41 L29,41 L29,24.5 L19,41 L14.5,41 Z" fill="url(#f-n)"/>
  <path d="M24,1.5 L45,9 L45,32 Q45,46 24,54.5 Q3,46 3,32 L3,9 Z" stroke="#2A5F90" stroke-width="0.7" fill="none" opacity="0.8"/>
</svg>
